<?xml version="1.0" encoding="UTF-8"?>
<svg id="Layer_1" data-name="Layer 1" xmlns="http://www.w3.org/2000/svg" viewBox="0 0 323.47 164.38">
  <defs>
    <style>
      .cls-1 {
        stroke-width: 0px;
      }
    </style>
  </defs>
  <path class="cls-1" d="m40.13,153.09c3.11,0,4.84,0,6.58,0,30.49,0,60.98-.02,91.47-.03,1.33,0,2.9-.39,3.94.17,1.22.67,2.4,2.07,2.74,3.38.15.6-1.62,1.96-2.75,2.55-.79.41-1.96.1-2.96.1-40.99,0-81.98,0-122.96-.01-1,0-2.21.34-2.95-.1-1.21-.72-2.11-1.95-3.14-2.96,1.07-1.01,2.07-2.76,3.23-2.88,3.59-.38,7.25-.14,10.61-.14-.53-8.13-1.75-15.75-1.31-23.28.44-7.53,2.55-14.97,3.95-22.58-5.15,2.59-8.64,6.58-10.35,12.33-.45,1.51-2.22,2.63-3.38,3.93-.82-1.77-2.81-4.11-2.27-5.22,2.55-5.24,5.79-10.14,8.87-15.32-5.13-.71-9.96,1.1-14.25,5.32-1.24,1.22-3.44,1.46-5.2,2.15.32-2.07-.06-4.7,1.07-6.12,4.18-5.26,10-7.54,16.71-7.42,1.98.04,3.96.26,6.78.46-3.93-4.91-8.12-7.28-13.96-7.11-1.62.05-3.29-1.6-4.94-2.47,1.44-1.07,2.77-2.81,4.35-3.08,6.77-1.14,12.37,1.58,17.18,6.16,1.3,1.24,2.5,2.57,3.17,3.26,4.74-2.96,8.94-6.26,13.68-8.26,2.8-1.18,6.52-.65,9.71-.18,1.27.19,2.25,2.32,3.37,3.57-1.59.65-3.29,2.04-4.76,1.83-6.24-.9-10.83,1.38-14.61,6.04,4.67.64,9.3.51,13.29,2.04,3.52,1.35,6.58,4.32,9.31,7.1.87.88.03,3.43-.02,5.22-1.53-.54-3.62-.62-4.5-1.69-3.8-4.65-8.62-6.44-14.57-6.54,2.41,3.88,4.75,7.41,6.79,11.09.69,1.25,1.12,3.02.81,4.35-.39,1.66-1.67,3.1-2.57,4.64-1.12-1.35-3.07-2.61-3.21-4.06-.6-5.99-4.11-9.51-9.27-12.65-5.88,14.6-7.31,29.05-2.88,44.88,4.81-3.29,9.22-6.12,13.43-9.21,19.57-14.35,34.8-32.92,49.56-51.86,3.24-4.15,6.52-5.79,11.72-5.53,8.48.43,17,.3,25.48,0,3.95-.14,6.35,1.39,8.86,4.26,8.11,9.28,16.45,18.36,24.96,27.28,1.31,1.38,4.1,2.38,5.94,2.05,16.17-2.85,31.9-1.05,47.3,4.11,13.09,4.39,25.89,9.73,39.12,13.63,20.58,6.07,40.83,4.87,60.11-5.39,1.95-1.04,4.4-2.41,5.31.6.38,1.28-1.21,4.06-2.63,4.84-17.19,9.53-35.8,12.12-54.67,7.85-14.68-3.33-28.96-8.65-43.17-13.78-17.44-6.29-35-9.29-53.42-5.34-1.67.36-4.31-.59-5.53-1.86-8.89-9.23-17.67-18.59-26.17-28.17-2.4-2.7-4.54-4.26-8.35-4.08-7.48.35-15,.31-22.49.01-3.6-.14-5.72,1.21-7.89,3.91-15.13,18.85-30.51,37.5-50.04,52.14-2.34,1.76-4.72,3.48-8.25,6.08Z"/>
  <path class="cls-1" d="m166.07,102.08c26.42-6.88,50.61-.72,74.37,9.35,14.68,6.22,29.85,10.52,46.06,9.54,10.74-.65,21.08-2.75,30.69-7.95,1.27-.69,3.37.14,5.09.26-.76,1.73-1.04,4.29-2.36,5.06-8.91,5.19-18.72,7.71-28.96,8.6-16.43,1.43-32.06-1.84-47.45-7.46-12.94-4.72-25.97-9.5-39.32-12.73-12.91-3.12-26.18-2.42-38.87,2.35-3.66,1.38-5.11-.03-5.13-3.45-.14-19.99-.28-39.99-.14-59.98.01-1.65,1.69-3.99,3.24-4.83,25.01-13.57,50.1-27,75.28-40.27,1.56-.82,4.32-.74,5.9.09,24.75,13.02,49.39,26.27,74.1,39.36,2.76,1.46,3.65,3.36,3.63,6.37-.09,15.33.09,30.66-.11,45.98-.02,1.6-1.86,3.18-2.85,4.78-1.06-1.55-3.01-3.09-3.04-4.66-.23-14.16-.22-28.32-.06-42.48.04-3.05-.85-4.82-3.6-6.26-22.69-11.93-45.27-24.06-68-35.92-1.67-.87-4.57-.89-6.23-.02-22.85,11.98-45.57,24.21-68.38,36.28-2.82,1.49-3.99,3.23-3.94,6.58.21,15.33.09,30.65.09,45.98,0,1.64,0,3.28,0,5.41Z"/>
  <path class="cls-1" d="m280.52,164.38c-16.65.22-32.26-4.27-47.48-10.52-15.78-6.48-31.77-12.4-49.17-11.72-6.58.26-13.09,2.06-19.66,2.9-1.6.21-4.33-.06-4.82-1-1.39-2.67.45-4.47,3.1-4.95,6.37-1.15,12.75-2.69,19.18-2.99,16.43-.77,31.93,3.51,47.23,9.2,11.98,4.45,24.12,8.97,36.59,11.47,18.37,3.69,36.49,1.77,53.27-7.76,1.12-.64,3.12.26,4.71.44-.71,1.73-.92,4.3-2.2,5.06-11.9,7.08-25.02,9.73-38.74,9.85-.67,0-1.33,0-2,0Z"/>
  <path class="cls-1" d="m151.95,129.22c-.67.89-1.19,2.23-1.82,2.28-1.32.12-3.2.02-3.96-.81-3.58-3.89-7.17-7.84-10.15-12.19-2.98-4.34-5.44-9.09-7.69-13.86-.53-1.11.71-3.06,1.13-4.62,1.45.65,3.48.9,4.26,2.02,5.69,8.09,11.13,16.35,16.64,24.57.54.8,1,1.64,1.58,2.61Z"/>
  <path class="cls-1" d="m105.52,100.48c.46,1.65,1.86,3.9,1.24,4.86-5.67,8.88-11.59,17.62-17.76,26.17-.69.95-3.33.48-5.07.67.24-1.6,0-3.51.8-4.74,5.32-8.13,10.85-16.12,16.36-24.13.75-1.08,1.77-1.97,2.66-2.95.59.04,1.18.08,1.77.12Z"/>
  <path class="cls-1" d="m116.39,102.1c1.89,2.34,3.11,3.24,3.5,4.42,2.47,7.5,4.84,15.04,7.02,22.63.32,1.13-.54,2.6-.85,3.92-1.46-.36-3.56-.24-4.24-1.17-1.74-2.37-3.34-5.07-4.12-7.88-1.5-5.41-2.54-10.96-3.43-16.5-.2-1.25,1.02-2.73,2.12-5.41Z"/>
  <path class="cls-1" d="m228.4,66.38h8.39v8.33h-8.39v-8.33Z"/>
  <path class="cls-1" d="m252.91,74.83h-8.02v-8.3h8.02v8.3Z"/>
  <path class="cls-1" d="m236.66,58.98h-8.09v-8.02h8.09v8.02Z"/>
  <path class="cls-1" d="m252.97,50.95v7.86h-8.04v-7.86h8.04Z"/>
</svg>