<svg width="532" height="531" viewBox="0 0 532 531" fill="none" xmlns="http://www.w3.org/2000/svg">
<path d="M53.7802 241.942C53.2534 246.721 51.7232 250.827 49.1897 254.262C46.6562 257.696 43.3871 260.213 39.3825 261.812C35.3779 263.411 30.9634 263.944 26.1391 263.412C21.2469 262.873 16.9867 261.383 13.3585 258.943C9.7077 256.5 6.99737 253.324 5.22752 249.416C3.43502 245.504 2.80218 241.159 3.329 236.38C3.85832 231.578 5.4023 227.45 7.96095 223.996C10.5196 220.541 13.8252 218.005 17.8776 216.389C21.9074 214.77 26.3571 214.229 31.2267 214.766C36.1189 215.305 40.3665 216.805 43.9695 219.265C47.575 221.703 50.2501 224.886 51.9949 228.815C53.7169 232.742 54.312 237.117 53.7802 241.942ZM52.8964 241.225C53.2085 238.394 52.6124 235.898 51.1083 233.738C49.6067 231.555 47.3254 229.791 44.2643 228.445C41.2033 227.099 37.5211 226.188 33.2177 225.714C29.6618 225.322 25.7954 225.251 21.6185 225.501C17.444 225.729 13.6087 226.727 10.1125 228.497C6.5937 230.264 4.61706 233.118 4.18262 237.059C3.87552 239.845 4.48536 242.319 6.01213 244.482C7.51875 246.619 9.80258 248.361 12.8636 249.707C15.9247 251.053 19.6069 251.964 23.9102 252.438C27.4208 252.825 31.2634 252.905 35.4378 252.677C39.6122 252.45 43.4576 251.464 46.9739 249.719C50.4928 247.952 52.4669 245.121 52.8964 241.225ZM65.5232 190.787C64.0044 195.011 61.6963 198.467 58.5989 201.155C55.4801 203.835 51.8262 205.512 47.6371 206.185C43.4267 206.85 39.0057 206.351 34.3741 204.685C29.5281 202.943 25.6204 200.375 22.651 196.983C19.6678 193.562 17.8216 189.605 17.1124 185.112C16.3817 180.612 16.8914 175.928 18.6415 171.06C19.6515 168.252 21.0064 165.797 22.7062 163.696C24.4059 161.595 26.3455 159.871 28.525 158.524L29.0038 159.313C26.7738 160.666 24.9203 162.252 23.4434 164.07C21.945 165.88 20.7179 168.114 19.7618 170.773C18.6208 173.947 18.6456 177.043 19.8362 180.062C21.0269 183.081 23.1256 185.797 26.1323 188.21C29.1391 190.623 32.7117 192.573 36.8501 194.061C41.1814 195.619 45.3046 196.375 49.2194 196.33C53.1128 196.277 56.4853 195.383 59.3369 193.647C62.1748 191.883 64.1951 189.328 65.3979 185.983C66.4464 183.067 66.6957 180.118 66.1457 177.135C65.5957 174.153 64.4112 171.487 62.5922 169.138L63.2532 168.613C65.6393 171.675 67.0209 175.004 67.3979 178.603C67.7826 182.18 67.1577 186.241 65.5232 190.787ZM91.4992 138.153L74.6312 165.979L32.5714 140.482L49.3331 112.832L50.1222 113.31L38.5698 132.367L57.8021 144.026L65.4565 131.399L66.2457 131.877L58.5913 144.504L79.0513 156.907L90.71 137.675L91.4992 138.153ZM121.136 105.09L113.876 113.133L98.7812 107.106L85.3388 122.001L92.7855 136.503L92.0985 137.264L68.1118 90.431L71.959 86.1682L121.136 105.09ZM72.2241 96.5366L84.9081 121.152L97.8925 106.765L72.2241 96.5366ZM155.009 80.4392L151.547 83.2915L101.437 67.5138L126.081 101.448L125.334 101.99L96.4323 62.193L102.24 57.9752L147.815 72.1039L125.361 41.1844L126.107 40.6421L155.009 80.4392ZM195.502 62.0282L191.134 63.617L156.143 24.006L166.454 20.2562L191.974 49.9272L194.807 53.1159L195.011 35.8752L195.074 9.84778L195.974 9.52069L195.502 62.0282ZM227.74 52.6471L217.896 54.6653L208.018 6.48286L217.862 4.46467L227.74 52.6471ZM270.133 49.1103L237.668 51.3012L234.356 2.2282L266.617 0.0511173L266.679 0.971875L244.444 2.47236L245.958 24.9116L260.691 23.9174L260.753 24.8381L246.021 25.8323L247.632 49.7038L270.071 48.1895L270.133 49.1103ZM328.504 33.5363L340.753 10.7181L341.731 10.8793L317.003 56.651L312.821 55.9616L307.56 22.9473L291.743 52.4866L287.696 51.8194L279.206 0.571129L290.144 2.30511L296.109 42.8141L307.316 21.4868L307.179 20.6329L304.6 4.75779L315.493 6.55366L321.234 46.9563L328.504 33.5363ZM370.838 78.201C366.895 76.0557 363.831 73.2474 361.647 69.7763C359.474 66.2852 358.374 62.4183 358.348 58.1756C358.332 53.9129 359.5 49.6199 361.853 45.2965C364.314 40.7729 367.447 37.3025 371.253 34.8852C375.089 32.4588 379.281 31.2377 383.83 31.2219C388.389 31.1862 392.94 32.4043 397.484 34.8763C400.106 36.3029 402.325 38.0163 404.142 40.0166C405.959 42.0169 407.367 44.1968 408.366 46.5562L407.513 46.909C406.516 44.4987 405.231 42.4251 403.66 40.6882C402.1 38.9313 400.079 37.3777 397.597 36.0273C394.634 34.4156 391.57 33.9679 388.405 34.6841C385.24 35.4004 382.235 37.0603 379.392 39.6639C376.549 42.2674 374.076 45.5008 371.975 49.3638C369.775 53.407 368.399 57.3665 367.846 61.2425C367.305 65.0984 367.674 68.5678 368.954 71.6507C370.265 74.7245 372.482 77.1108 375.604 78.8097C378.326 80.2907 381.203 80.9869 384.234 80.8982C387.266 80.8094 390.081 80.0454 392.68 78.6059L393.098 79.3393C389.709 81.2306 386.207 82.0881 382.593 81.9119C379 81.7466 375.081 80.5097 370.838 78.201ZM423.216 116.158L414.993 109.102L420.64 93.8611L405.414 80.7955L391.103 88.6025L390.325 87.9348L436.543 62.7842L440.901 66.5236L423.216 116.158ZM430.543 67.0479L406.252 80.3436L420.96 92.9641L430.543 67.0479ZM432.773 128.066L426.502 120.213L464.934 89.52L485.282 114.999L484.561 115.575L470.484 97.9479L452.59 112.239L461.847 123.83L461.126 124.406L451.868 112.815L432.773 128.066ZM464.723 178.64L449.197 150.044L492.421 126.576L507.849 154.991L507.038 155.432L496.405 135.847L476.64 146.578L483.686 159.555L482.875 159.995L475.829 147.019L454.803 158.435L465.534 178.2L464.723 178.64ZM473.4 205.1L470.361 195.522L516.362 180.925L515.595 178.622L511.515 165.537L512.372 165.301L525.15 205.568L524.238 205.858L520.103 192.826L519.401 190.503L473.4 205.1ZM482.791 257.968L478.936 225.658L527.774 219.831L531.604 251.937L530.688 252.047L528.048 229.918L505.716 232.583L507.465 247.244L506.549 247.354L504.8 232.692L481.043 235.527L483.707 257.858L482.791 257.968ZM479.519 303.791L480.422 291.725L504.616 282.6L504.629 282.43L505.022 277.181L505.768 276.825L505.465 280.881C504.94 287.903 508.756 291.718 516.914 292.328C520.527 292.598 523.455 291.938 525.699 290.346C527.966 288.756 529.244 286.03 529.533 282.167L529.889 277.395L481.762 273.797L482.511 263.776L531.559 267.443L530.201 285.61C529.902 289.609 529.139 292.934 527.913 295.584C526.686 298.235 525.091 300.16 523.128 301.362C521.164 302.563 518.921 303.069 516.399 302.881C512.513 302.59 509.533 300.894 507.457 297.791C505.379 294.711 504.4 290.387 504.519 284.821L501.653 292.901L479.519 303.791ZM476.054 319.378L478.319 309.588L526.238 320.675L523.973 330.465L476.054 319.378ZM459.07 364.896L463.009 354.802L479.26 355.089L486.553 336.398L474.451 325.476L474.824 324.521L513.848 359.816L511.761 365.165L459.07 364.896ZM507.839 355.564L487.257 337.04L480.212 355.094L507.839 355.564ZM456.129 414.218C453.769 416.975 451.37 419.014 448.93 420.335C446.509 421.669 444.193 422.282 441.984 422.174C439.761 422.083 437.752 421.354 435.958 419.987C432.334 417.224 430.754 413.828 431.218 409.798C431.669 405.786 434.015 400.999 438.256 395.436L448.285 382.28L487.4 412.098L476.231 426.749C474.076 429.576 471.858 431.696 469.578 433.109C467.301 434.554 465.072 435.262 462.889 435.231C460.724 435.214 458.7 434.487 456.815 433.05C455.166 431.793 454.049 430.139 453.463 428.088C452.896 426.051 452.847 423.822 453.318 421.401C453.806 418.994 454.743 416.6 456.129 414.218ZM480.574 419.53L462.743 405.937L459.407 410.313C458.219 411.871 457.586 413.509 457.509 415.227C457.418 416.963 457.821 418.632 458.72 420.234C459.619 421.836 460.893 423.265 462.542 424.523C465.297 426.622 468.04 427.553 470.772 427.315C473.508 427.108 476.029 425.492 478.336 422.466L480.574 419.53ZM439.156 395.778C437.015 398.586 436.298 401.35 437.006 404.067C437.718 406.816 439.542 409.309 442.477 411.547C445.54 413.882 448.442 414.905 451.183 414.617C453.924 414.328 456.442 412.68 458.735 409.672L462.009 405.377L442.927 390.831L439.156 395.778ZM421.863 449.719C418.994 451.941 416.231 453.452 413.574 454.251C410.933 455.068 408.541 455.199 406.4 454.646C404.241 454.107 402.421 452.986 400.941 451.284C397.952 447.844 397.092 444.199 398.363 440.346C399.617 436.509 402.884 432.296 408.163 427.707L420.649 416.854L452.915 453.975L439.011 466.061C436.328 468.393 433.727 470.02 431.207 470.942C428.686 471.897 426.359 472.138 424.228 471.665C422.111 471.21 420.276 470.089 418.721 468.3C417.361 466.735 416.602 464.889 416.444 462.762C416.3 460.652 416.704 458.46 417.655 456.184C418.62 453.926 420.023 451.771 421.863 449.719ZM444.726 459.871L430.016 442.949L425.863 446.559C424.384 447.844 423.433 449.32 423.009 450.987C422.569 452.668 422.626 454.384 423.182 456.135C423.738 457.886 424.696 459.544 426.057 461.109C428.329 463.723 430.827 465.19 433.55 465.51C436.271 465.862 439.068 464.789 441.94 462.293L444.726 459.871ZM408.975 428.224C406.309 430.541 405.048 433.102 405.191 435.906C405.332 438.742 406.613 441.553 409.035 444.34C411.561 447.246 414.196 448.835 416.939 449.108C419.681 449.381 422.48 448.276 425.335 445.795L429.411 442.252L413.67 424.143L408.975 428.224ZM357.106 488.483C354.967 484.459 353.811 480.415 353.639 476.353C353.477 472.31 354.295 468.533 356.094 465.022C357.903 461.532 360.592 458.58 364.161 456.167L344.057 458.763L343.898 457.88L366.103 454.942L366.857 454.541C371.103 452.284 375.358 451.235 379.623 451.394C383.888 451.553 387.808 452.837 391.385 455.245C394.962 457.653 397.889 461 400.167 465.286C402.477 469.632 403.646 473.991 403.673 478.364C403.711 482.756 402.614 486.785 400.381 490.449C398.158 494.133 394.925 497.103 390.679 499.36C386.413 501.627 382.133 502.677 377.837 502.508C373.541 502.34 369.584 501.037 365.966 498.599C362.359 496.181 359.405 492.809 357.106 488.483ZM392.355 473.309C390.697 470.191 388.599 466.971 386.059 463.65C383.52 460.329 380.539 457.707 377.117 455.784C373.675 453.871 370.224 453.835 366.763 455.674C364.248 457.011 362.522 458.909 361.584 461.369C360.626 463.839 360.453 466.718 361.065 470.006C361.677 473.293 362.999 476.848 365.031 480.671C366.71 483.83 368.829 487.065 371.388 490.375C373.928 493.696 376.913 496.303 380.344 498.195C383.786 500.107 387.258 500.133 390.759 498.272C393.234 496.957 394.935 495.059 395.862 492.58C396.78 490.131 396.932 487.262 396.321 483.975C395.709 480.687 394.387 477.132 392.355 473.309ZM305.018 477.502L309.581 476.616L337.953 521.207L327.183 523.3L306.612 490.006L304.313 486.414L301.417 503.411L297.288 529.109L296.349 529.291L305.018 477.502ZM271.714 481.76L281.752 481.285L284.077 530.415L274.039 530.89L271.714 481.76ZM229.28 478.742L261.697 481.562L257.434 530.561L225.222 527.759L225.302 526.84L247.503 528.771L249.452 506.366L234.742 505.086L234.822 504.166L249.532 505.446L251.606 481.61L229.201 479.661L229.28 478.742ZM169.168 484.783L153.427 505.348L152.487 505.033L184.219 463.806L188.236 465.155L188.149 498.586L208.487 471.957L212.375 473.263L212.558 525.21L202.039 521.748L202.63 480.807L188.156 500.067L188.154 500.932L188.161 517.015L177.695 513.5L178.491 472.699L169.168 484.783ZM163.882 455.683L137.324 497.081L122.997 487.89C119.43 485.601 116.774 483.18 115.028 480.625C113.252 478.078 112.357 475.527 112.343 472.974C112.318 470.44 113.061 467.993 114.575 465.634C116.211 463.083 118.301 461.324 120.844 460.356C123.367 459.376 126.209 459.21 129.368 459.855C132.515 460.521 135.843 461.979 139.353 464.231L142.604 466.316L142.508 467.351L139.89 465.672C136.956 463.789 134.119 463.296 131.379 464.191C128.626 465.105 126.001 467.509 123.503 471.403C122.052 473.666 121.184 475.884 120.899 478.057C120.584 480.237 120.875 482.251 121.774 484.1C122.653 485.936 124.109 487.507 126.142 488.811L129.364 490.878L155.424 450.257L163.882 455.683ZM114.258 415.894C117.636 419.315 119.861 423.091 120.931 427.222C122.001 431.354 121.895 435.478 120.613 439.595C119.33 443.712 116.963 447.476 113.509 450.886C110.008 454.345 106.166 456.714 101.985 457.993C97.7878 459.289 93.614 459.392 89.4636 458.303C85.2971 457.23 81.5245 454.983 78.1458 451.562C74.7512 448.125 72.5189 444.325 71.449 440.161C70.3791 435.997 70.4934 431.833 71.7921 427.668C73.0745 423.519 75.4585 419.723 78.9441 416.28C82.4458 412.821 86.2872 410.468 90.4681 409.221C94.633 407.958 98.7905 407.887 102.941 409.008C107.075 410.146 110.847 412.441 114.258 415.894ZM113.144 416.129C111.143 414.102 108.829 412.992 106.204 412.799C103.563 412.589 100.755 413.249 97.7811 414.777C94.8069 416.306 91.7797 418.591 88.6995 421.633C86.1542 424.147 83.6626 427.105 81.2247 430.506C78.7707 433.89 77.1291 437.497 76.2998 441.327C75.4542 445.173 76.4245 448.506 79.2107 451.327C81.1803 453.321 83.4857 454.407 86.1271 454.584C88.7363 454.761 91.528 454.086 94.5022 452.557C97.4764 451.029 100.504 448.744 103.584 445.701C106.097 443.219 108.58 440.286 111.034 436.901C113.488 433.517 115.146 429.91 116.007 426.08C116.853 422.234 115.899 418.917 113.144 416.129ZM86.128 384.946L91.8754 393.189L51.5297 421.32L45.7823 413.077L86.128 384.946ZM64.9553 343.363L67.1663 347.266L42.9659 393.895L80.6483 375.487L81.0534 376.316L36.8602 397.905L33.7096 391.456L55.5021 349.008L21.1672 365.781L20.7622 364.952L64.9553 343.363ZM56.3289 313.244L58.7778 322.99L11.9711 334.751L12.5956 337.097L15.8694 350.406L14.9992 350.59L4.70402 309.617L5.6322 309.384L8.96397 322.644L9.5222 325.006L56.3289 313.244Z" fill="#85BFC1" fill-opacity="0.6"/>
</svg>
