<svg width="1033" height="1017" viewBox="0 0 1033 1017" fill="none" xmlns="http://www.w3.org/2000/svg">
<path d="M129.154 632.678L132.383 644.019L31.0159 672.881L14.3688 614.413L15.8481 613.992L29.2661 661.118L77.0261 647.52L67.8401 615.257L69.3194 614.836L78.5054 647.099L129.154 632.678ZM36.6864 513.789L109.78 509.122L109.934 511.534L98.3028 519.029L98.4676 519.312C103.16 523.073 106.846 527.535 109.524 532.697C112.199 537.811 113.717 543.194 114.077 548.846C114.364 553.329 113.736 557.284 112.193 560.709C110.598 564.089 108.202 566.786 105.003 568.801C101.802 570.767 97.9108 571.896 93.3303 572.188L40.63 575.553L39.9113 564.297L91.369 561.011C97.119 560.644 101.512 558.945 104.547 555.913C107.531 552.836 108.851 548.593 108.505 543.184C108.235 538.944 107.245 534.947 105.538 531.19C103.781 527.437 101.415 524.09 98.4381 521.149L37.4051 525.046L36.6864 513.789ZM110.582 462.088L109.331 473.298L-0.000117889 461.099L1.25062 449.889L110.582 462.088ZM118.312 415.456L115.78 426.448L8.57835 401.749L11.1107 390.758L118.312 415.456ZM135.857 247.609L92.617 220.888L98.8545 210.794L188.511 266.2L182.274 276.294L137.103 248.379L109.188 293.55L154.359 321.465L148.16 331.496L58.503 276.09L64.7021 266.059L107.942 292.78L135.857 247.609ZM234.047 216.061C228.866 220.957 223.112 224.145 216.783 225.625C210.457 227.035 204.163 226.702 197.901 224.626C191.605 222.514 185.925 218.779 180.86 213.42C175.595 207.849 172.261 201.728 170.861 195.056C169.46 188.385 169.745 181.969 171.715 175.807C173.685 169.645 176.887 164.468 181.323 160.276C186.504 155.379 192.276 152.209 198.637 150.765C204.999 149.321 211.311 149.637 217.573 151.713C223.836 153.79 229.465 157.472 234.463 162.759C239.762 168.366 243.129 174.523 244.563 181.23C245.964 187.901 245.679 194.317 243.709 200.479C241.739 206.641 238.518 211.835 234.047 216.061ZM233.576 214.389C235.705 212.377 237.431 209.369 238.753 205.365C240.077 201.292 239.974 196.35 238.446 190.538C236.953 184.693 233.121 178.506 226.949 171.977C223.83 168.676 219.569 165.448 214.166 162.29C208.799 159.099 203.153 157.213 197.228 156.631C191.339 156.016 186.195 157.788 181.794 161.947C179.701 163.926 177.993 166.917 176.671 170.921C175.349 174.925 175.418 179.832 176.877 185.641C178.372 191.417 182.189 197.552 188.326 204.046C191.513 207.417 195.772 210.715 201.104 213.94C206.435 217.164 212.063 219.102 217.985 219.752C223.908 220.403 229.105 218.615 233.576 214.389ZM299.469 77.0211L335.87 140.577L333.772 141.779L321.919 134.641L321.738 134.913C320.429 140.783 318.048 146.058 314.595 150.737C311.183 155.391 307.02 159.126 302.105 161.941C298.207 164.174 294.381 165.352 290.626 165.477C286.889 165.535 283.412 164.573 280.194 162.59C277.018 160.582 274.29 157.587 272.009 153.604L245.764 107.78L255.552 102.174L281.178 146.918C284.041 151.917 287.503 155.112 291.562 156.501C295.639 157.823 300.029 157.137 304.732 154.444C308.419 152.333 311.571 149.683 314.191 146.495C316.786 143.264 318.747 139.665 320.076 135.696L289.681 82.6268L299.469 77.0211ZM387.915 120.359C384.096 121.56 379.847 122.129 375.169 122.065C370.537 121.987 365.856 121.182 361.126 119.65L361.499 118.15C366.151 119.758 370.708 120.577 375.17 120.606C379.68 120.621 383.867 120.02 387.733 118.804C391.319 117.675 394.065 116.069 395.969 113.986C397.919 111.888 399.077 109.63 399.442 107.211C399.854 104.778 399.686 102.374 398.939 99.9986C397.738 96.1793 395.431 93.3218 392.019 91.4263C388.593 89.4841 383.946 88.0541 378.077 87.1361L375.835 86.8433C371.107 86.13 367.005 85.296 363.531 84.3414C360.104 83.3722 357.009 81.9144 354.247 79.9681C351.47 77.9752 349.576 75.3718 348.565 72.158C347.349 68.2921 347.333 64.6627 348.518 61.2699C349.703 57.877 351.938 54.8958 355.225 52.3262C358.497 49.7101 362.602 47.6253 367.539 46.0721C371.451 44.8412 375.336 44.3356 379.193 44.5554C383.035 44.7287 386.576 45.4064 389.814 46.5887L389.533 48.1359C386.542 46.927 383.102 46.2432 379.213 46.0847C375.324 45.9261 371.4 46.4695 367.441 47.7151C364.228 48.7262 361.685 50.2428 359.813 52.265C357.941 54.2872 356.745 56.5062 356.225 58.9219C355.737 61.2764 355.845 63.5715 356.548 65.8073C357.252 68.043 358.642 69.8579 360.718 71.2521C362.827 72.5851 365.296 73.5999 368.126 74.2964C370.956 74.993 374.627 75.6807 379.14 76.3595L381.404 76.7221C388.15 77.8248 393.679 79.6173 397.992 82.0995C402.29 84.5352 405.216 88.2216 406.769 93.1588C407.912 96.7919 407.967 100.383 406.934 103.933C405.901 107.483 403.769 110.713 400.538 113.623C397.293 116.487 393.085 118.732 387.915 120.359ZM474.553 98.5047C478.634 98.0946 482.163 97.0774 485.141 95.4532C488.162 93.7755 490.666 91.8308 492.652 89.6192C494.682 87.3541 496.626 84.7295 498.485 81.7454L499.725 82.357C496.9 87.9409 493.018 92.5268 488.078 96.1149C483.182 99.6495 477.188 101.773 470.095 102.486C463.682 103.131 457.819 102.174 452.508 99.6161C447.245 97.0533 442.953 93.1662 439.632 87.9545C436.354 82.6895 434.362 76.5346 433.654 69.49C432.868 61.6681 433.651 54.5718 436.005 48.201C438.402 41.7768 442.079 36.6224 447.038 32.738C452.045 28.8486 457.877 26.5695 464.533 25.9006C470.703 25.2805 476.164 26.1548 480.917 28.5234C485.67 30.8921 489.462 34.437 492.292 39.1581C495.165 43.8258 496.915 49.269 497.54 55.4877L444.632 60.8047C444.691 62.3692 444.76 63.5401 444.838 64.3174C445.527 71.1677 447.048 77.2717 449.402 82.6296C451.805 87.9825 455.116 92.1156 459.334 95.0286C463.553 97.9417 468.626 99.1004 474.553 98.5047ZM464.053 27.7155C460.069 28.1159 456.606 29.789 453.663 32.7347C450.715 35.6319 448.445 39.4178 446.854 44.0926C445.307 48.7138 444.539 53.772 444.551 59.267L485.799 55.1218C485.218 49.3403 484.003 44.3342 482.155 40.1033C480.301 35.8238 477.841 32.5867 474.775 30.3922C471.708 28.1976 468.134 27.3054 464.053 27.7155ZM641.335 115.773L584.814 102.085L609.622 -0.349575L621.083 2.42604L596.637 103.365L641.697 114.278L641.335 115.773ZM752.874 85.7278L720.23 151.293L718.066 150.216L717.421 136.394L717.093 136.395C711.485 138.566 705.776 139.515 699.967 139.241C694.202 138.989 688.784 137.6 683.713 135.076C679.692 133.074 676.587 130.546 674.398 127.492C672.275 124.417 671.144 120.991 671.007 117.213C670.913 113.457 671.889 109.525 673.935 105.416L697.471 58.1439L707.568 63.171L684.587 109.329C682.019 114.487 681.284 119.139 682.383 123.286C683.548 127.411 686.556 130.682 691.408 133.097C695.21 134.991 699.165 136.141 703.271 136.549C707.398 136.914 711.481 136.546 715.519 135.448L742.777 80.7006L752.874 85.7278ZM747.453 166.249L745.973 165.05L787.08 153.851L790.921 107.204L801.452 115.73L798.2 149.661L797.85 152.77L805.652 150.699L835.504 143.392L837.087 144.58L797.601 154.359L793.391 203.44L783.315 195.283L786.416 159.91L786.99 155.475L777.367 158.05L747.453 166.249ZM908.836 224.845L851.532 270.459L850.026 268.568L855.285 255.769L854.988 255.632C848.988 255.228 843.413 253.674 838.265 250.969C833.147 248.303 828.824 244.754 825.297 240.323C822.499 236.808 820.754 233.204 820.062 229.512C819.438 225.827 819.862 222.244 821.335 218.763C822.838 215.319 825.385 212.169 828.976 209.31L870.293 176.423L877.317 185.248L836.975 217.36C832.467 220.948 829.834 224.854 829.076 229.076C828.387 233.307 829.73 237.542 833.106 241.783C835.751 245.107 838.848 247.821 842.397 249.927C845.983 252.002 849.839 253.396 853.962 254.108L901.812 216.02L908.836 224.845ZM953.149 294.102C955.332 298.415 956.017 302.473 955.206 306.277L953.732 306.284C954.095 304.514 954.119 302.668 953.804 300.748C953.489 298.828 952.89 296.997 952.008 295.254C950.31 291.899 947.742 289.095 944.303 286.84C940.885 284.63 936.881 282.989 932.29 281.92L877.2 309.799L872.107 299.735L937.457 266.663L938.549 268.82L931.331 280.025L931.594 280.22C936.731 281.287 941.217 283.121 945.051 285.723C948.95 288.346 951.65 291.139 953.149 294.102ZM986.725 392.698L987.192 394.317L908.8 386.823L893.946 385.01C887.733 384.262 882.404 382.877 877.959 380.856C873.527 378.883 869.916 376.494 867.125 373.691L868.128 372.411C870.616 375.047 873.922 377.346 878.045 379.307C882.182 381.315 886.703 382.628 891.607 383.246L906.371 385.008L907.927 383.797L970.421 336.189L973.913 348.293L928.757 381.751L921.879 386.709L935.635 388.152L986.725 392.698ZM927.303 496.156L1032.55 501.745L1030.97 531.513C1030.53 539.705 1028.88 546.438 1026.01 551.713C1023.19 556.991 1019.44 560.801 1014.77 563.145C1010.14 565.491 1004.86 566.506 998.909 566.19C992.278 565.838 986.709 563.904 982.201 560.388C977.743 556.875 974.474 552.13 972.396 546.152C970.363 540.225 969.549 533.459 969.953 525.852L970.237 520.513L971.719 520.225L971.435 525.564C970.967 534.39 973.153 541.107 977.993 545.716C982.88 550.376 990.077 552.959 999.585 553.464C1005.58 553.782 1010.79 552.836 1015.21 550.626C1019.68 548.419 1023.13 545.252 1025.54 541.127C1028.01 537.052 1029.38 532.358 1029.67 527.043L1030.39 513.439L926.677 507.932L927.303 496.156ZM910.127 611.247C912.095 604.395 915.427 598.723 920.122 594.229C924.851 589.796 930.439 586.88 936.886 585.482C943.381 584.096 950.171 584.422 957.258 586.458C964.625 588.575 970.609 592.149 975.21 597.179C979.81 602.21 982.83 607.878 984.269 614.185C985.708 620.492 985.585 626.578 983.899 632.444C981.931 639.296 978.575 644.962 973.834 649.442C969.092 653.922 963.497 656.861 957.049 658.26C950.602 659.659 943.882 659.354 936.889 657.344C929.474 655.214 923.443 651.627 918.796 646.583C914.196 641.552 911.176 635.883 909.737 629.577C908.298 623.27 908.428 617.16 910.127 611.247ZM911.382 612.446C910.573 615.262 910.619 618.729 911.518 622.849C912.451 627.029 915.053 631.231 919.326 635.456C923.585 639.728 930.032 643.105 938.667 645.586C943.032 646.84 948.343 647.452 954.601 647.421C960.845 647.437 966.665 646.188 972.061 643.674C977.444 641.208 980.972 637.065 982.644 631.245C983.439 628.477 983.387 625.032 982.488 620.913C981.589 616.793 979.033 612.604 974.821 608.346C970.595 604.134 964.188 600.794 955.6 598.327C951.142 597.046 945.797 596.374 939.566 596.311C933.336 596.248 927.505 597.443 922.076 599.896C916.646 602.35 913.082 606.533 911.382 612.446ZM874.05 701.126C877.596 694.942 882.184 690.228 887.815 686.984C893.464 683.806 899.586 682.307 906.182 682.486C912.819 682.689 919.336 684.625 925.732 688.292C932.383 692.105 937.342 697.003 940.61 702.985C943.878 708.967 945.458 715.193 945.352 721.661C945.246 728.129 943.675 734.01 940.639 739.305C937.093 745.49 932.483 750.192 926.81 753.412C921.137 756.632 915.002 758.152 908.407 757.973C901.812 757.794 895.359 755.895 889.047 752.276C882.354 748.439 877.353 743.517 874.042 737.51C870.775 731.528 869.194 725.303 869.3 718.835C869.406 712.366 870.99 706.464 874.05 701.126ZM874.983 702.59C873.526 705.132 872.743 708.51 872.634 712.725C872.543 717.007 874.068 721.709 877.21 726.831C880.328 731.996 885.784 736.813 893.578 741.281C897.517 743.54 902.529 745.4 908.614 746.863C914.674 748.368 920.624 748.543 926.464 747.388C932.28 746.276 936.694 743.094 939.705 737.841C941.138 735.342 941.909 731.985 942.018 727.77C942.127 723.555 940.644 718.877 937.569 713.737C934.469 708.639 929.044 703.868 921.292 699.423C917.268 697.116 912.238 695.189 906.202 693.642C900.166 692.095 894.219 691.865 888.361 692.953C882.503 694.041 878.043 697.253 874.983 702.59ZM833.477 767.689L840.724 759.047L925.019 829.732L917.772 838.375L833.477 767.689ZM743.684 845.764L747.775 843.054L839.81 908.508L829.125 915.587L755.803 862.863L747.916 857.457L753.434 881.037L771.302 953.893L769.959 954.783L743.684 845.764ZM724.638 960.209C726.517 959.387 728.36 959.275 730.166 959.871C731.992 960.511 733.305 961.749 734.107 963.583C734.89 965.373 734.896 967.155 734.127 968.93C733.357 970.705 732.033 972.004 730.154 972.825C728.23 973.666 726.356 973.767 724.53 973.126C722.66 972.505 721.334 971.299 720.551 969.51C719.749 967.675 719.755 965.861 720.569 964.066C721.358 962.336 722.715 961.05 724.638 960.209ZM683.757 880.96L694.091 876.442L723.431 943.551L713.096 948.069L683.757 880.96ZM639.494 897.54L650.284 894.255L682.325 999.495L671.535 1002.78L639.494 897.54ZM593.608 908.881L604.705 906.861L624.403 1015.09L613.306 1017.11L593.608 908.881ZM537.998 989.785C528.532 990.138 521.567 988.101 517.102 983.675C512.637 979.248 510.257 973.082 509.963 965.178L508.119 915.7L510.534 915.61L517.718 927.436L518.076 927.203C521.857 922.469 526.024 918.893 530.575 916.476C535.078 914.06 540.062 912.751 545.527 912.547C548.845 912.423 551.968 912.967 554.896 914.177C557.775 915.389 560.14 917.206 561.989 919.629C563.791 922.103 564.757 925.072 564.886 928.536C565.081 933.757 563.294 938.27 559.527 942.076C555.76 945.881 550.548 948.933 543.891 951.234C537.234 953.534 529.571 955.09 520.904 955.901L521.234 964.758C521.511 972.174 523.046 977.981 525.841 982.176C528.587 986.374 533.059 988.357 539.256 988.126C543.501 987.968 547.665 986.958 551.749 985.095C555.833 983.233 559.245 981.053 561.986 978.557L562.914 979.842C559.116 982.817 555.245 985.16 551.302 986.871C547.361 988.63 542.926 989.602 537.998 989.785ZM539.131 917.916C535.471 918.052 532.014 919.012 528.757 920.795C525.452 922.579 522.481 924.791 519.843 927.43L520.852 954.511C527.134 953.935 532.828 952.672 537.935 950.723C542.993 948.775 546.975 946.159 549.882 942.875C552.791 939.639 554.164 935.826 554 931.434C553.84 927.14 552.395 923.774 549.666 921.335C546.888 918.897 543.376 917.758 539.131 917.916Z" fill="#85BFC1"/>
</svg>
