<svg width="919" height="797" viewBox="0 0 919 797" fill="none" xmlns="http://www.w3.org/2000/svg">
<path d="M228.989 721.354L236.663 727.863L178.484 796.449L138.924 762.891L139.773 761.891L171.659 788.938L199.071 756.624L177.242 738.107L178.091 737.106L199.92 755.623L228.989 721.354ZM106.847 682.027L155.982 643.399L157.256 645.021L152.703 655.915L152.956 656.034C158.074 656.409 162.822 657.764 167.202 660.098C171.555 662.4 175.225 665.451 178.213 669.25C180.582 672.264 182.052 675.348 182.624 678.502C183.138 681.65 182.757 684.705 181.482 687.668C180.182 690.599 177.992 693.274 174.913 695.695L139.487 723.545L133.539 715.978L168.129 688.785C171.994 685.746 174.261 682.427 174.93 678.828C175.539 675.221 174.415 671.6 171.557 667.964C169.316 665.114 166.688 662.782 163.67 660.966C160.621 659.177 157.338 657.968 153.823 657.339L112.796 689.593L106.847 682.027ZM133.647 610.004L138.262 618.45L55.8804 663.459L51.2656 655.013L133.647 610.004ZM116.119 573.667L119.781 582.568L32.9653 618.283L29.3033 609.382L116.119 573.667ZM44.0556 449.176L0.824625 452.708L6.74518e-05 442.617L89.6388 435.293L90.4634 445.384L45.3014 449.074L48.9916 494.236L94.1535 490.546L94.973 500.575L5.33424 507.899L4.51478 497.87L47.7457 494.338L44.0556 449.176ZM95.0128 377.64C94.0227 383.643 91.7605 388.781 88.2261 393.054C84.6575 397.279 80.2101 400.304 74.8838 402.128C69.5165 403.946 63.7289 404.342 57.5211 403.318C51.0667 402.254 45.6409 399.817 41.2437 396.009C36.8465 392.201 33.7257 387.696 31.8813 382.493C30.0368 377.29 29.5384 372.119 30.3861 366.98C31.3762 360.978 33.659 355.843 37.2344 351.577C40.8098 347.31 45.2606 344.265 50.5869 342.441C55.9131 340.616 61.639 340.21 67.7645 341.22C74.2601 342.292 79.727 344.735 84.1653 348.55C88.5625 352.358 91.6833 356.863 93.5278 362.066C95.3722 367.269 95.8672 372.46 95.0128 377.64ZM93.8296 376.749C94.2365 374.282 93.8549 371.347 92.6847 367.945C91.4802 364.494 88.858 361.19 84.8182 358.032C80.785 354.833 74.9863 352.61 67.4218 351.362C63.5985 350.731 59.0364 350.739 53.7356 351.385C48.4416 351.99 43.6322 353.624 39.3075 356.289C34.9895 358.913 32.4101 362.774 31.5692 367.872C31.1691 370.298 31.5541 373.212 32.7243 376.614C33.8945 380.016 36.4755 383.314 40.4675 386.506C44.4663 389.657 50.2274 391.853 57.7507 393.094C61.6563 393.739 66.2527 393.779 71.5399 393.215C76.8271 392.652 81.6503 391.061 86.0094 388.444C90.3684 385.827 92.9752 381.929 93.8296 376.749ZM66.7768 249.75L124.588 273.502L123.804 275.41L112.08 276.809L112.101 277.088C114.293 281.728 115.452 286.528 115.576 291.489C115.716 296.412 114.867 301.108 113.03 305.579C111.574 309.125 109.613 311.923 107.149 313.974C104.662 315.97 101.815 317.143 98.6086 317.492C95.4178 317.803 92.011 317.214 88.3882 315.725L46.7065 298.6L50.3643 289.697L91.0632 306.419C95.611 308.287 99.6159 308.626 103.078 307.436C106.517 306.191 109.116 303.43 110.874 299.152C112.251 295.799 112.987 292.363 113.082 288.843C113.138 285.307 112.575 281.855 111.391 278.486L63.119 258.653L66.7768 249.75ZM148.802 232.4C146.894 235.234 144.363 237.875 141.208 240.323C138.077 242.735 134.527 244.69 130.556 246.186L130.007 244.988C133.965 243.584 137.441 241.704 140.433 239.348C143.448 236.958 145.921 234.329 147.852 231.46C149.644 228.798 150.62 226.266 150.781 223.863C150.965 221.425 150.536 219.303 149.492 217.495C148.472 215.653 147.08 214.139 145.317 212.952C142.483 211.044 139.424 210.366 136.139 210.918C132.82 211.446 128.959 212.966 124.557 215.477L122.905 216.475C119.372 218.517 116.192 220.143 113.367 221.356C110.565 222.534 107.725 223.209 104.847 223.381C101.934 223.529 99.2849 222.801 96.8999 221.196C94.031 219.264 92.0887 216.852 91.0731 213.958C90.0575 211.065 89.9619 207.886 90.7863 204.423C91.5761 200.937 93.2042 197.361 95.6705 193.698C97.6249 190.794 99.9469 188.389 102.636 186.483C105.291 184.553 108.014 183.121 110.803 182.186L111.439 183.367C108.801 184.153 106.142 185.528 103.464 187.492C100.786 189.456 98.4578 191.907 96.4801 194.845C94.8747 197.23 93.9858 199.595 93.8136 201.941C93.6413 204.286 94.0248 206.402 94.964 208.29C95.8919 210.12 97.1854 211.594 98.8446 212.71C100.504 213.827 102.397 214.298 104.524 214.122C106.64 213.889 108.827 213.252 111.085 212.21C113.343 211.169 116.158 209.673 119.53 207.724L121.233 206.76C126.319 203.906 130.961 202.158 135.158 201.518C139.322 200.855 143.235 201.757 146.899 204.223C149.595 206.038 151.543 208.404 152.744 211.321C153.944 214.239 154.242 217.528 153.636 221.189C152.996 224.826 151.384 228.563 148.802 232.4ZM194.63 171.39C197.103 168.914 198.883 166.334 199.971 163.652C201.059 160.911 201.661 158.274 201.777 155.74C201.892 153.147 201.757 150.363 201.372 147.387L202.521 147.121C203.674 152.335 203.59 157.462 202.268 162.501C200.946 167.481 198.136 172.124 193.838 176.429C189.952 180.321 185.564 182.859 180.675 184.041C175.814 185.194 170.879 184.948 165.869 183.302C160.859 181.597 156.216 178.61 151.941 174.342C147.193 169.602 143.874 164.493 141.984 159.014C140.094 153.477 139.736 148.085 140.911 142.84C142.114 137.565 144.733 132.908 148.766 128.868C152.505 125.124 156.583 122.749 161.002 121.743C165.421 120.738 169.84 121.029 174.261 122.616C178.682 124.145 182.779 126.793 186.553 130.561L154.494 162.672C155.379 163.673 156.057 164.409 156.529 164.88C160.687 169.031 164.991 172.239 169.442 174.504C173.922 176.74 178.342 177.679 182.702 177.322C187.062 176.965 191.038 174.988 194.63 171.39ZM149.43 130.326C147.016 132.744 145.634 135.721 145.283 139.257C144.903 142.763 145.451 146.49 146.927 150.437C148.404 154.325 150.631 158.079 153.61 161.701L178.603 136.667C175.094 133.163 171.586 130.515 168.079 128.72C164.542 126.896 161.168 126.089 157.956 126.298C154.745 126.507 151.903 127.849 149.43 130.326ZM313.426 91.3853L269.089 113.676L228.691 33.3227L237.681 28.8027L277.49 107.984L312.837 90.2126L313.426 91.3853ZM368.512 9.71767L384.204 70.2157L382.208 70.7335L374.053 62.195L373.842 62.3788C371.446 66.9173 368.302 70.7247 364.408 73.8009C360.554 76.8667 356.288 79.0063 351.609 80.2198C347.899 81.1823 344.484 81.2932 341.365 80.5526C338.275 79.7613 335.629 78.1878 333.425 75.8323C331.262 73.4664 329.689 70.3878 328.705 66.5966L317.391 22.9775L326.708 20.5609L337.755 63.1515C338.99 67.9107 341.122 71.3179 344.151 73.373C347.211 75.3774 350.979 75.7989 355.456 74.6377C358.965 73.7276 362.155 72.2543 365.028 70.2179C367.89 68.1411 370.313 65.6185 372.298 62.6501L359.195 12.1343L368.512 9.71767ZM410.124 64.5391L408.501 64.6157L428.337 34.147L404.307 2.24401L415.857 1.69913L433.044 25.1652L434.586 27.345L438.382 21.5972L453.255 -0.00267365L454.938 -0.144627L435.329 28.4988L460.505 62.1622L449.455 62.6836L431.353 38.3846L429.202 35.2325L424.531 42.3355L410.124 64.5391ZM545.59 9.39915L535.73 71.1165L533.693 70.7912L529.642 59.7007L529.375 59.7847C525.362 62.9833 520.955 65.2119 516.155 66.4704C511.396 67.7354 506.63 67.9867 501.857 67.2242C498.072 66.6195 494.899 65.353 492.337 63.4248C489.824 61.4621 488.029 58.9602 486.954 55.9191C485.92 52.8846 485.712 49.4335 486.329 45.5659L493.438 1.06769L502.943 2.58608L496.002 46.0351C495.226 50.8902 495.814 54.8662 497.767 57.963C499.767 61.0252 503.051 62.9212 507.618 63.6508C511.198 64.2226 514.711 64.151 518.159 63.436C521.613 62.6797 524.844 61.3394 527.852 59.4148L536.085 7.88075L545.59 9.39915ZM612.925 26.997C616.796 28.4211 619.584 30.5567 621.289 33.4039L620.373 34.2655C619.57 32.9489 618.512 31.7827 617.198 30.7668C615.885 29.7509 614.446 28.9553 612.882 28.3799C609.871 27.2722 606.636 27.0146 603.177 27.6069C599.757 28.2135 596.303 29.5178 592.814 31.5197L574.624 80.9677L565.591 77.6448L587.169 18.9876L589.104 19.6997L591.113 30.894L591.391 30.863C595.219 28.542 599.087 27.079 602.995 26.4742C606.955 25.8446 610.265 26.0189 612.925 26.997ZM690.956 68.2226L692.197 68.9487L639.32 110.419L629.07 118.034C624.788 121.225 620.679 123.503 616.742 124.868C612.841 126.254 609.203 126.901 605.829 126.81L605.696 125.428C608.785 125.595 612.181 125.072 615.884 123.859C619.623 122.668 623.19 120.821 626.586 118.319L636.751 110.726L637.001 109.062L647.642 42.8719L656.919 48.3019L648.677 95.546L647.339 102.657L656.694 95.4586L690.956 68.2226ZM715.506 166.671L782.763 106.961L799.651 125.984C804.298 131.219 807.332 136.299 808.751 141.223C810.201 146.121 810.21 150.681 808.779 154.905C807.378 159.102 804.777 162.887 800.976 166.262C796.738 170.024 792.197 172.189 787.352 172.757C782.539 173.297 777.709 172.376 772.862 169.992C768.075 167.612 763.524 163.991 759.208 159.131L756.179 155.719L756.906 154.655L759.935 158.067C764.942 163.707 770.297 166.475 776 166.371C781.761 166.271 787.68 163.524 793.756 158.13C797.588 154.727 800.184 151.03 801.543 147.037C802.933 143.017 803.126 139.03 802.121 135.074C801.176 131.122 799.195 127.448 796.18 124.051L788.462 115.358L722.186 174.196L715.506 166.671ZM774.494 246.66C771.513 241.357 770.066 235.933 770.153 230.388C770.295 224.859 771.875 219.717 774.891 214.963C777.943 210.189 782.212 206.261 787.697 203.178C793.4 199.973 799.157 198.482 804.97 198.705C810.783 198.927 816.035 200.492 820.728 203.399C825.421 206.306 829.043 210.03 831.595 214.57C834.575 219.873 836.004 225.308 835.881 230.873C835.759 236.438 834.19 241.598 831.174 246.352C828.158 251.106 823.943 255.004 818.531 258.045C812.792 261.27 806.998 262.782 801.149 262.58C795.336 262.358 790.084 260.793 785.391 257.886C780.698 254.979 777.066 251.237 774.494 246.66ZM775.975 246.616C777.2 248.796 779.332 250.847 782.373 252.771C785.471 254.71 789.583 255.649 794.71 255.588C799.858 255.563 805.774 253.672 812.457 249.916C815.835 248.018 819.391 245.159 823.124 241.341C826.877 237.558 829.608 233.275 831.317 228.491C833.046 223.744 832.645 219.118 830.114 214.614C828.909 212.471 826.787 210.437 823.746 208.514C820.705 206.59 816.629 205.631 811.518 205.635C806.427 205.677 800.558 207.565 793.91 211.301C790.46 213.24 786.847 216.083 783.074 219.828C779.3 223.574 776.53 227.831 774.765 232.599C772.999 237.367 773.403 242.04 775.975 246.616ZM807.906 322.364C806.2 316.525 806.015 310.915 807.351 305.532C808.738 300.178 811.437 295.526 815.449 291.576C819.5 287.614 824.545 284.75 830.584 282.986C836.864 281.151 842.809 280.998 848.422 282.527C854.034 284.056 858.798 286.766 862.713 290.657C866.629 294.549 869.317 298.994 870.777 303.993C872.484 309.833 872.649 315.449 871.273 320.843C869.897 326.237 867.204 330.909 863.193 334.86C859.181 338.81 854.196 341.656 848.237 343.397C841.918 345.244 835.932 345.408 830.279 343.891C824.667 342.362 819.903 339.652 815.988 335.76C812.073 331.869 809.379 327.404 807.906 322.364ZM809.359 322.656C810.06 325.056 811.675 327.536 814.203 330.096C816.782 332.685 820.577 334.528 825.585 335.626C830.606 336.763 836.796 336.257 844.155 334.107C847.874 333.02 851.983 331.038 856.482 328.161C860.992 325.323 864.619 321.767 867.364 317.493C870.12 313.258 870.774 308.661 869.325 303.702C868.635 301.342 867.026 298.882 864.499 296.322C861.971 293.761 858.216 291.906 853.236 290.757C848.267 289.648 842.123 290.163 834.804 292.301C831.005 293.411 826.844 295.365 822.322 298.162C817.8 300.96 814.141 304.481 811.345 308.728C808.548 312.974 807.887 317.617 809.359 322.656ZM825.013 386.69L823.9 377.129L917.145 366.275L918.258 375.836L825.013 386.69ZM821.734 488.248L822.383 484.111L916.603 463.856L914.907 474.661L839.48 490.465L831.534 492.318L849.559 502.423L905.726 533.132L905.513 534.491L821.734 488.248ZM883.188 565.509C883.737 563.847 884.715 562.613 886.123 561.805C887.57 561.01 889.105 560.881 890.727 561.416C892.309 561.939 893.445 562.95 894.135 564.45C894.824 565.951 894.895 567.531 894.346 569.193C893.784 570.895 892.78 572.143 891.332 572.937C889.872 573.771 888.351 573.927 886.768 573.405C885.146 572.869 883.997 571.831 883.32 570.292C882.671 568.805 882.627 567.21 883.188 565.509ZM809.552 546.328L812.57 537.188L871.918 556.785L868.9 565.925L809.552 546.328ZM794.96 583.939L798.972 575.19L884.305 614.315L880.293 623.065L794.96 583.939ZM776.336 619.728L781.27 611.464L861.874 659.584L856.94 667.848L776.336 619.728ZM797.519 700.673C792.473 706.988 787.276 710.356 781.928 710.775C776.579 711.195 771.268 709.298 765.994 705.085L732.986 678.712L734.274 677.101L745.92 679.046L745.968 678.684C745.015 673.603 745.025 668.918 745.999 664.629C746.946 660.372 748.876 656.421 751.789 652.775C753.558 650.562 755.649 648.846 758.062 647.628C760.45 646.442 762.942 645.926 765.538 646.081C768.141 646.294 770.598 647.324 772.91 649.17C776.393 651.953 778.315 655.622 778.675 660.177C779.036 664.732 778.105 669.802 775.883 675.386C773.661 680.971 770.398 686.79 766.094 692.845L772.002 697.565C776.95 701.519 781.559 703.761 785.828 704.292C790.071 704.855 793.844 703.07 797.147 698.936C799.41 696.104 801.077 692.849 802.149 689.172C803.22 685.495 803.712 682.075 803.626 678.912L804.973 679.029C804.78 683.141 804.138 686.949 803.047 690.45C801.989 693.978 800.146 697.385 797.519 700.673ZM751.696 659.901C749.745 662.342 748.439 665.112 747.777 668.21C747.09 671.34 746.864 674.493 747.1 677.669L765.166 692.104C768.294 687.722 770.65 683.338 772.235 678.951C773.794 674.597 774.322 670.565 773.819 666.857C773.348 663.174 771.647 660.162 768.718 657.821C765.853 655.532 762.872 654.591 759.775 654.996C756.652 655.434 753.959 657.069 751.696 659.901Z" fill="#85BFC1"/>
</svg>
